<?xml version="1.0" encoding="UTF-8"?>
<svg id="Layer_1" xmlns="http://www.w3.org/2000/svg" version="1.1" viewBox="0 0 1024 1024">
  <!-- Generator: Adobe Illustrator 29.8.0, SVG Export Plug-In . SVG Version: 2.1.1 Build 160)  -->
  <path d="M368.61,42.66c23.8-4.98,48.63,13.8,52.01,37.46.39,5.65.25,11.34-.52,16.95,19.86,7.24,39.85,14.08,59.85,20.91,4.83,1.89,10.8,4.77,11.66,10.44,2.3,7.72-4.99,17.35-13.44,15.11-4.99-.51-9.51-2.86-14.18-4.5-15.73-5.7-31.8-10.44-47.34-16.68-2.95-.82-6.37-3-9.3-.98-6.27,3.9-12.47,7.94-19.27,10.86-.17,33.9-.08,67.79-.06,101.69,12.53,4.84,23.49,13.6,29.78,25.61,11.1-3.89,21.29-9.9,32.05-14.6,9.28-3.87,17.82-9.47,27.47-12.46,9.46-2.86,18.2,9.17,13.75,17.58-1.84,4.44-6.6,6.22-10.5,8.42-15.64,6.86-30.87,14.6-46.45,21.58-5.04,2.3-10.39,4.42-14.27,8.55-3.27,5.64-4.33,12.49-8.8,17.44-5.75,7.73-14.65,11.77-23.05,15.89.05,29.9-.15,59.8.13,89.7.85,1.03,1.69,2.06,2.54,3.1,9.33-6.19,16.25-15.14,24.16-22.9,17.71-17.3,34.75-35.26,52.39-52.63,2.54-2.59,5.54-5.05,9.23-5.65,8.84-2.49,18.43,7.59,14.46,16.34-5.05,7.75-12.21,13.81-18.64,20.38-19.93,19.89-39.9,39.74-59.69,59.76,3.57,6.97,8.28,13.83,8.33,21.99,2.3,15.64-5.44,31.68-18.23,40.61-4.27,3.3-9.29,5.4-13.84,8.25,1.42,26.37,3.06,52.73,5.27,79.06,5.82,1.88,11.62,3.89,17.55,5.45,18.05-23.88,36.03-47.81,53.82-71.87,3.34-4.03,6.33-9,11.69-10.5,7.44-1.96,14.98,4.92,15.26,12.19-.09,5.53-4.27,9.75-7.16,14.05-19.03,24.56-37.16,49.8-56.23,74.31,3.48,12.43,6.66,26.34.93,38.55,18.29,14.63,38.87,26.16,57.17,40.74,7.24,5.8,3.06,18.79-5.57,20.7-4.23,1.82-7.88-.95-11.34-2.77-18.07-11.83-35.41-24.75-53.51-36.51-5.79-2.47-10.68,2.74-15.87,4.38-7.03,3.39-14.69,1.63-22.08,1-4.05-.55-6.7,3.39-9.29,5.83-14.53,15.98-31.14,29.86-45.95,45.57,4.03,7.01,9.07,13.75,10.34,21.95,1.77,6.53.48,13.17-.29,19.71,48.13,7.65,96.14,15.98,144.28,23.59,5.25.98,11.36,3.12,13.16,8.74,2.42,5.39-.98,11.39-5.36,14.6-3.55,2.79-8.38,1.95-12.57,1.5-41.54-6.72-82.97-14.13-124.54-20.67-6.55-.69-13.08-3.48-19.71-2.6.83,5.56,3.54,10.58,5.41,15.83,11.22,28.25,21.42,56.89,32.93,85.02,8.8-.87,17.91-1.09,26.11,2.86,7.08,2.44,12.3,10.8,20.66,8.33,20.99-5.77,41.7-12.65,62.73-18.27,8.86-1.92,17.26,8.31,13.68,16.69-2.38,5.97-9.07,7.72-14.61,9.58-18.05,5.74-36.86,9.49-54.46,16.35-2.78,6.64.66,14.67-1.27,21.73-5.58,20.19-25.86,35.43-47.02,34.02-15.18-1.53-30.81-10.49-36.75-25.11-2.05-3.73-2.94-8.14-5.78-11.38-4.15-3.38-9.51-4.63-14.34-6.71-32.38-13.26-64.75-26.56-97.11-39.86-3.45-1.59-7.84-2.38-11.12-.05-7.68,5.19-16.26,9.73-25.88,9.13-18.1,1.37-36.15-10.37-42.97-27.06-4.27-8.31-4.67-18.06-3.35-27.15,1.42-8.28,7.03-14.89,11.11-21.97,1.82-2.87.21-6.5-.18-9.45-6.7-30.14-13.14-60.34-19.45-90.56-.7-2.82-1.97-5.86-4.91-6.95-7.11-3.19-14.34-6.62-19.62-12.56-11.45-11.15-14.99-28.96-10.28-44,2.28-6.29,6.19-11.79,9.74-17.4-9.57-15.87-18.52-32.1-28.05-47.99-6.11-9.82-10.8-20.6-18.59-29.28-2.99-2.03-6.58-2.84-9.84-4.3-19.31-8.75-31.82-31.98-25.22-52.8,4.03-9.44,9.18-19.51,18.59-24.54,6.67-4.31,15.46-5.81,19.55-13.44,14.24-21.55,28.13-43.35,42.54-64.8-3.82-10.7-8.51-22.48-4.1-33.77,4.78-19.35,23.28-33.49,43.1-33.94,5.88.19,7.24-6.35,9.48-10.45,16.47-33.85,34.11-67.12,51.61-100.45,4.26-7.41-3.38-14.85-4.25-22.13-4.72-26.82,20.2-55.26,47.9-51.31,3.38.37,7.2.66,9.71-2.21,24.43-19.91,48.84-39.85,73.18-59.87,1.86-1.41,2.93-3.68,2.71-6.02-3.35-23.2,15.33-45.94,38.18-48.98ZM372.47,67.62c-9.42,1.81-17.19,10.57-17.31,20.25.13,10.57,9.82,21.18,20.8,20.05,13.67.83,24.99-15.91,18.14-28.01-3.69-7.79-12.66-14.5-21.63-12.29ZM336.83,121.81c-20.24,16.82-40.47,33.67-61.18,49.91,2.95,7.02,7.72,13.18,10.16,20.42,3.74,12.38,1.94,26.53-5.49,37.2-4.55,6.72-11.84,10.83-17.17,16.75-1.53,8.91.82,18.08,1.49,27.05,1.53,23.75,4.34,47.38,6.32,71.1,6.05,2.16,12.53,3.3,18.06,6.71,9.94,5.14,17.28,14.59,21.01,25.04,4.03,13.28,2.16,28.63-6.11,39.95-11.07,15.73-32.49,23.77-50.94,17.08-12.32-3.3-21.18-13.5-27.6-24.02-13.1,1.66-26.03,4.3-39.07,6.35.69,5.64,2.4,11.06,3.83,16.55,6.23,22.13,12.32,44.3,18.45,66.46,1.75,6.25,3.22,12.63,6.03,18.51,8.24-2.27,17.18-2.67,25.32.26,5.76,1.66,10.2,6.39,16.06,7.69,3.18-.52,5.71-2.76,8.38-4.42,21.73-15.52,44.94-28.87,66.6-44.48,3.43-2.69.15-7.66.31-10.97-3.26-12.63,1.05-25.86,8.61-36.03,6.08-7.34,14.83-11.54,23.08-15.91.01-30.59.11-61.18-.06-91.77-11.97-5.1-23.59-12.83-28.91-25.22-8.12-16.2-3.43-37.22,9.63-49.39,5.49-5.54,12.64-8.87,19.33-12.68.12-33.07-.2-66.15.39-99.21.04-3.08-3.41-4.09-5.47-5.52-5.33-2.89-10.14-6.61-15.4-9.6-2.09-1.51-4.02,1.3-5.66,2.19ZM238.47,184.63c-8.57,1.75-15.98,9.54-16.24,18.49-1.51,11.51,9.06,23.17,20.74,21.94,10.99.06,21.23-10.95,19.16-22.09.33-11.53-12.66-20.88-23.66-18.34ZM222.26,246.49c-18.29,35.08-35.83,70.54-54.51,105.4,5.74,6.11,11.75,12.21,15.54,19.8,2.53,5.62,2.94,11.91,4.26,17.87,11.19-.57,22.41-2.8,33.11-5.94,3.18-3.72,3.21-9.23,5.52-13.5,3.86-9.87,12.65-16.02,20.82-22.11-4.14-32.44-6.05-65.12-9.51-97.64-5.07-1.36-10.11-2.77-15.23-3.88ZM371.43,258.41c-12.81,1.82-20.74,18.62-13.47,29.62,4.39,5.78,11.08,11.84,19.02,10.03,14.23.28,24.48-18.37,15.91-29.99-4.09-7.61-13.06-11.58-21.46-9.66ZM138.44,369.52c-13.67,1.71-22.41,18.79-14.56,30.56,7.33,14.54,31.28,12.45,36.36-2.91,5.85-13.62-7.33-30.2-21.8-27.65ZM263.47,369.6c-8.82,1.89-16.34,9.3-17.16,18.42-1.01,11.34,9.12,22.82,20.65,21.97,10.79.12,21.55-9.78,20.05-20.95.37-11.72-12.24-21.76-23.54-19.44ZM118.41,429.73c-10.45,17.55-22.57,34.04-33.33,51.39-3.1,4.5,4.58,6.6,6.7,9.2,9.21,5.65,13.37,16,17.6,25.35,5.35,3.29,11.91,4.4,17.92,6.1,17.43,4.36,34.72,9.19,52.05,13.92,2.38.53,4.83,1.28,7.28.89,3.2-2.01,6-5.94,4.62-9.84-9.46-32.3-17.99-64.88-27.24-97.24-8.49,2.92-17.04,7.73-26.33,5.87-6.74-.71-12.9-3.59-19.27-5.64ZM371.42,436.47c-6.51,1.27-11.88,6.38-14.77,12.19-3.69,9.23-.07,21.14,9.38,25.3,12.26,8.56,29.91-2.87,29.95-16.92.57-12.35-12.36-23.74-24.56-20.57ZM342.92,497.87c-24.34,16.08-48.87,31.87-73.12,48.1,6.57,20.06-1.78,44.02-20.76,54.15-10.78,7.3-23.92,6.24-36.03,4.01-11.8,18.41-25.2,35.87-35.84,54.99,16.57-2.72,32.77-7.36,49.2-10.82,37.27-8.33,74.5-16.89,111.77-25.23,5.38-1.31,5.35-8.05,6.79-12.21,3.13-12.64,13.31-21.68,24.07-28.11-1.75-27.28-3.31-54.57-5.09-81.85-4.07-2.22-8.15-4.47-12.39-6.34-3.21-1.3-5.99,2.2-8.6,3.31ZM61.47,506.62c-8.8,1.21-15.55,9.08-17.3,17.52-1.64,13.33,12.19,25.81,25.36,22.24,9.13-1.66,16.51-11.01,15.4-20.35.54-11.75-12.12-22.03-23.46-19.41ZM223.44,539.54c-11.25,1.71-19.73,13.85-16.97,25.04,1.86,9.9,12.17,17.14,22.11,15.79,9.17-.94,16.86-8.84,18.01-17.94,1.74-12.64-10.45-25.15-23.15-22.89ZM108.7,542.09c-3.05,4.5-5.51,9.43-9.06,13.59-4.44,4.88-9.7,8.96-15.17,12.65,7.39,14.43,16.22,28.05,24.03,42.25,5.06,8.49,9.54,17.35,15.16,25.5,11.88-3.81,24.23-.96,35.16,4.16,10.43-16.29,21.94-31.88,32.01-48.39,1.23-2.01-.99-4.09-1.71-5.91-4.93-7.39-7.21-16.03-9.78-24.41-23.55-6.46-47.22-12.54-70.64-19.44ZM387.21,604.63c-5.83.83-12.23,2.8-15.53,8.06-5.75,6.76-5.73,17.16-.52,24.23,6.64,11.59,26.12,11.64,32.71-.01,10.85-12.2-.74-33.46-16.66-32.28ZM192.55,681.4c-3.68,1.68-10.06.44-11.78,5.04-1.95,5.92-3.17,12.3-6.82,17.51-5.26,8.91-14.05,14.85-23.08,19.46,6.61,30.73,13.07,61.49,20,92.15,11.08-1.38,22.36.61,32.33,5.64,15.8-15.66,30.6-32.28,45.91-48.41-2.98-6.9-6.46-13.99-5.84-21.75-.5-22.15,18.24-42.05,39.86-44.8,5.33-.2,10.62,1.01,15.94,1.23,3.83.27,6.12-3.52,8.76-5.63,15.1-15.41,30.48-30.52,45.63-45.88-1.81-3.12-3.67-6.24-5.48-9.31-51.84,11.42-103.61,23.21-155.43,34.75ZM135.22,659.49c-8.93-.21-16.24,7-18.76,15.08-1.95,8.91,1.89,19.48,10.55,23.37,12.49,8.2,30.96-4.5,29.13-18.94.61-11.02-10.23-20.28-20.92-19.51ZM285.42,731.46c-5.27,1.12-9.93,4.51-12.99,8.91-6.81,8.02-4.19,22.08,4.58,27.61,9.58,8.16,26.55,3.84,30.84-8.15,7.48-13.75-7.4-31.99-22.43-28.37ZM265.57,791.73c-14.25,16.31-29.83,31.43-44.53,47.35,5.49,10.18,6.33,21.93,3.93,33.13,35.65,15.24,71.79,29.33,107.66,44.05,3.64-5.86,7.71-11.41,12.28-16.58-13.9-34.86-26.82-70.1-40.96-104.87-6.27,1.33-12.59,3.51-19.08,2.38-6.59-1.26-12.8-3.85-19.3-5.46ZM179.35,840.3c-10.78.31-20.08,10.95-18.39,21.67-.16,11.67,12.19,21.67,23.62,18.61,9.57-1.23,17.4-10.87,16.41-20.56.42-11.05-10.76-20.88-21.64-19.72ZM369.45,914.56c-10.12,2.94-16.85,15.19-13.17,25.24,2.93,10.77,16.31,17.79,26.7,13.19,10.7-4.3,17.28-19.01,10.03-29-4.28-8.46-14.61-12.31-23.56-9.43Z"/>
  <path d="M638.05,42.98c19.24-4.67,39.62,6.04,49.2,22.77,5.26,8.75,5.63,19.39,5.26,29.32,22.8,20.12,47.17,38.41,70.37,58.07,3.97,3.09,8.12,7.96,13.76,6.83,16.45-2.87,33.73,6.07,42.29,20.1,6.81,9.75,8.29,22.45,6.1,33.94-1.04,4.96-4.11,9.19-5.39,14.06.55,3.58,2.83,6.68,4.28,9.97,18.6,34.6,36.22,69.81,54.35,104.59,8.66,2.12,18.04,2.3,25.83,7.23,13.02,7.64,22.67,21.77,22.84,37.18.89,7.47-1.95,14.46-3.76,21.53-1.95,2.89.37,5.31,1.65,7.53,12.49,18.27,24.14,37.1,36.55,55.42,3.28,4.64,5.55,10.8,11.33,12.81,13.55,4.97,25.14,15.62,29.41,29.64,6.54,15.18-.83,32.42-11.29,43.85-6.32,7.24-15.79,10.03-24.12,14.11-4.6,5.58-7.9,12.05-11.62,18.21-11.6,19.44-22.93,39.04-34.32,58.6,5.93,9.02,12.44,18.87,11.35,30.25,1.19,14.7-7.03,29.02-18.83,37.31-4.9,3.68-11.42,4.83-15.89,9.05-7.99,32.66-13.9,65.82-21.58,98.56-1.29,3.51.56,6.76,2.82,9.4,12.29,15.83,11.66,39.96-.77,55.55-12.74,16.87-38.3,22.72-56.7,11.89-4.34-2.21-8.37-6.3-13.75-5.08-6.64,1.77-12.72,5.12-19.07,7.67-28.38,11.58-56.64,23.45-85.08,34.87-3.98,1.75-8.73,2.78-11.53,6.37-2.75,4.54-4.15,9.76-6.89,14.31-8.47,13.72-24.9,21.63-40.86,21.09-18.96-1.28-36.5-15.35-40.91-33.98-2.32-6.91-1.52-14.29-.01-21.25-18.66-6.33-37.69-11.44-56.57-17.04-5.22-1.25-10.83-3.85-13.46-8.77-4.01-8.46,4.91-19.55,14.05-17.17,22.9,5.84,45.07,14.6,68.3,19.12,4.29-3.28,8.47-6.89,13.49-9.02,8.49-3.73,18.01-3.83,27.13-3.73,9-23.36,18.11-46.68,27.19-70.01,3.55-10.47,8.74-20.37,11.24-31.19-44.95,7.59-89.98,14.69-134.91,22.4-5.8.8-11.54,2.21-17.42,2.32-3.78-.86-7.19-3.24-9.13-6.63-4.44-4.05-1.53-10.66,1.69-14.37,6.31-4.91,14.7-4.53,22.18-6.04,17.96-3.25,36.07-5.51,54.01-8.89,25.98-4.55,52.2-7.89,78.02-13.34-.31-5.69-.75-11.42-.46-17.09,1.13-9.05,6.41-16.65,11.05-24.23-16.05-16.48-32.83-32.22-48.8-48.77-4-4.84-10.62-1.75-15.77-1.84-7.52,1.42-14.25-2.82-20.93-5.48-2.68-.98-5.99-2.43-8.54-.54-18.41,12.17-36.09,25.45-54.6,37.47-6.25,4.27-15.39,1.26-17.9-5.86-3.89-7.5,3.01-14.58,8.86-18.23,16.87-11.46,33.67-23.02,50.26-34.87-1.32-8.74-4.33-17.78-1.51-26.55.87-4.09,2.9-7.94,3.16-12.12-19.29-27.2-39.99-53.4-59.69-80.3-2.46-3.63-3.86-8.38-2.69-12.67,2.55-4.94,7.65-9.37,13.67-8.36,6.24,1.22,9.76,7.12,13.37,11.72,17.3,23.82,35.3,47.13,52.88,70.74,5.44-1.83,11.65-2.36,16.48-5.64,2.2-3.77,1.34-8.68,2.08-12.79.94-22.21,2.83-44.35,4.09-66.53-7.31-3.84-14.73-7.84-20.68-13.66-8.52-9.12-12.9-21.81-11.75-34.24.75-8.31,5.15-15.53,9.02-22.7-24.02-23.76-47.78-47.78-71.8-71.54-4.01-3.9-8.47-8.78-7.26-14.93,1.15-4.76,4.81-9.57,10.01-9.94,4.84-1.71,8.93,1.91,12.48,4.63,23.05,22.62,45.28,46.06,68.42,68.6,3.24,3.25,6.89,6.09,10.93,8.28,3.82-24.43.74-49.34,1.87-73.95-.98-6.27,1.95-13.81-1.6-19.46-6.99-5.03-15.89-7.78-21.11-15.03-4.97-5.39-6.25-12.9-10.11-18.94-7.28-5.6-16.19-8.48-24.35-12.54-13.3-6.41-26.77-12.48-40.04-18.95-7.72-3.06-10-15.18-3.18-20.34,3.57-4.02,9.8-4.43,14.43-2.09,10.86,5.17,21.7,10.37,32.59,15.48,7.7,3.56,15.09,7.9,23.33,10.12,4.87-8.21,10.99-16.01,19.76-20.3,4.29-2.7,12.13-3.76,10.05-10.93.42-31.71-.1-63.43.13-95.14-5.45-3.18-11.08-6.1-16.29-9.68-2.36-1.4-4.99-3.55-7.88-2.31-21.21,7.52-42.48,14.93-63.78,22.19-7.48,2.93-17.32-3.73-16.15-12.12-.45-5.94,4.78-10.36,9.93-12.12,20.66-7.41,41.54-14.26,62.16-21.81-7.11-23.85,11.28-49.64,35.03-54.05ZM642.43,68.46c-11.71,2.31-19.07,16.92-13.62,27.68,3.01,5.21,7.82,9.87,13.8,11.37,9.92,2.1,20.99-3.97,24.27-13.61.56-4.31.24-8.82-.73-13.04-3.47-9.17-14.09-14.85-23.72-12.4ZM660.06,132.2c-.1,33.88-.12,67.77,0,101.66,5.83,3.06,11.63,6.22,16.98,10.09,17.16,13.74,20.77,40.6,8.62,58.72-5.91,9.47-16.06,14.44-25.66,19.31-.01,30.28-.08,60.56.05,90.85,14.97,5.42,28.37,17.52,31.59,33.56,2.82,9.13-.58,18.37-1.31,27.51,1.86,2.73,5.11,4.05,7.64,6.11,21.28,14.09,42.88,27.71,64.01,42.03,1.93.45,4.18,3.73,6.55,2.37,6.05-2.76,11.23-7.39,17.84-8.92,7.2-2.44,14.74-.65,21.95.69,8.8-26.87,15.41-54.42,23.19-81.6,1.78-6.32,3.84-12.66,4.09-19.27-12.57-1.67-25.03-4.03-37.47-6.45-4.91,7.02-9.61,14.63-17.1,19.18-19.68,14.26-50.57,7.77-63.06-13.02-13.35-18.25-8.95-46.42,9.09-59.92,6.45-5.52,14.84-7.5,22.44-10.83,3.4-1.31,2.5-5.76,3.23-8.56,2.57-29.51,4.83-59.06,8.15-88.5-14.66-9.71-27.63-25.13-26.3-43.79-.06-11.61,6.41-21.51,12.91-30.58-22.06-18-44-36.14-66.23-53.92-6.61,5.13-13.66,9.67-21.21,13.28ZM778.45,184.61c-9.45.69-17.74,9.28-17.81,18.81-1.39,9.87,6.3,19.22,15.78,21.14,12.99,3.49,26.85-9.85,24-22.91-1.72-9.86-11.78-18.55-21.97-17.04ZM785.28,250.3c-3.27,32.92-6.99,65.88-8.12,98.96,13,7.07,21.38,20.32,24.13,34.66,10.9,2.31,21.88,4.19,32.82,6.31,1.88-6.43,2.9-13.18,6.01-19.18,3.43-7.47,9.72-13,15.23-18.94-18.33-35.07-36.45-70.26-54.81-105.31-5.12,1.01-10.21,2.25-15.26,3.5ZM643.43,258.45c-9.68,1.89-17.79,11.32-16.3,21.44.51,13.47,17.33,22.6,28.92,16.18,6.75-3.52,12.82-10.96,10.97-19.04.67-11.93-12.39-21.26-23.59-18.58ZM751.43,370.49c-9.58,2.08-16.9,12.22-15.01,22.08,1.09,12.49,16.32,21.42,27.57,15.42,11.43-4.26,16.17-20.72,8.06-30.03-4.21-6.92-13.1-9.1-20.62-7.47ZM876.41,370.42c-11.83,2.52-18.49,16.8-13.34,27.55,3.95,7.74,13.3,13.96,22.28,11.42,8.92-2.04,17.7-10.54,15.7-20.37.68-12.65-12.88-21.7-24.64-18.6ZM858.97,429.48c-3.18,7.88-4.83,16.25-7.17,24.39-6.77,24.34-13.12,48.79-20.02,73.09-1.59,4.03,2.27,7.2,3.93,10.47,23.65-6.05,47.2-12.48,70.8-18.72,2.21-1.1,6.09-.98,7.3-3.76,3.85-7.06,6.73-14.81,12.43-20.7,3.93-3.91,8.68-6.81,13.29-9.83-6.21-11.44-14.31-21.71-21.2-32.72-4.65-7.53-9.64-14.86-14.58-22.18-6.33,2.32-12.46,5.47-19.3,6.02-8.99.88-17.41-2.66-25.48-6.06ZM645.42,436.64c-8.07.43-15.54,6.45-17.44,14.36-3.26,8.92,1.77,18.95,10.04,23,12.41,8.23,31.94-4.04,29-18.98.46-11.14-10.92-19.98-21.6-18.38ZM659.14,500.31c-2.17,27.43-3.73,54.91-5.13,82.39,11.49,6.7,21.77,17.08,24.54,30.48.44,4.01,1.46,9.33,6.31,9.95,50.49,11.49,101.01,22.88,151.47,34.54,3.07.68,6.21.92,9.36.84-11.43-18.44-23.79-36.32-35.87-54.35-11.21,2.42-23.6,2.67-33.83-3.12-10.83-5.08-18.58-15.17-22.71-26.19-3.71-9.31-1.79-19.29-.41-28.83-15.17-11.03-31.23-20.74-46.92-30.98-10.79-6.83-21.03-14.54-32.21-20.71-5.26.69-9.73,4.06-14.6,5.98ZM953.43,507.44c-8.61,1.4-15.21,9.96-15.41,18.54-.65,9.75,7.32,18.59,16.62,20.49,11.37,2.05,23.96-7.53,23.32-19.43.75-12.55-12.36-22.95-24.53-19.6ZM792.43,540.42c-6.94.44-11.53,6.8-14.77,12.25-5.91,12.69,6.15,29.54,20.3,27.26,12.21.14,22.19-13.39,18.09-24.96-1.94-10.57-13.38-17.1-23.62-14.55ZM852.24,559.09c-3.62,1.15-9.05,1.19-9.72,6.06-2.5,9.24-6.35,17.96-11.83,25.81,11.74,16.05,21.88,33.18,33.43,49.36,6.47-2.5,12.88-5.57,19.91-6.11,5.06-.01,10.09.98,15.09,1.75,13.62-22.27,26.9-44.8,39.5-67.67-10.35-5.84-18.32-15.11-23.86-25.51-21.13,4.26-41.56,11.35-62.52,16.31ZM632.4,605.38c-8,.14-13.47,6.95-16.39,13.63-4.6,12.27,6.51,28.29,20.01,26.15,10.52.44,21.13-10.41,19.03-21.14.2-11.36-11.42-21.26-22.65-18.64ZM674.65,646.34c-1.38,3.16-4.36,5.89-4.59,9.49,1.48,2.75,3.99,4.73,6.08,7.02,15.17,14.82,30.08,29.9,45.08,44.9,3.25-.45,6.54-1.14,9.84-1.32,21.52-2.54,42.2,13.87,47.19,34.46,3.49,10.77.39,22.31-4.61,32.06,14.99,16.46,30.39,32.57,46.21,48.24,9.79-5.48,21.13-6.44,32.16-5.52,6.51-30.96,14.11-61.73,19.27-92.93-16.08-6.59-27.31-21.83-30.26-38.83-55.43-12.65-110.87-25.24-166.37-37.57ZM880.44,660.53c-5.43,1.43-9.24,6.25-12.01,10.83-2.09,6.71-2.35,15.17,2.34,20.88,4.81,6.62,13.62,9.21,21.4,7.01,8.44-2.08,15.07-10.52,14.79-19.29,1.24-13.34-14.25-23.64-26.52-19.43ZM731.4,731.54c-12.32,1.42-21.42,15.73-16.38,27.48,3.57,9.45,15.18,15.47,24.87,11.9,6.99-2.53,12.91-8.88,13.67-16.48,1.74-12.23-9.55-24.83-22.16-22.9ZM741.58,796.58c-7.49,1.86-15.05-.17-22.4-1.66-12.77,31.01-24.3,62.51-36.71,93.66-1.61,4.06-3.76,8.22-2.74,12.77,3.21,5.16,7.3,9.74,10.65,14.83,35.79-14.47,71.47-29.22,107.37-43.41-.54-4.26-1.12-8.49-1.08-12.79-.5-7.76,3.5-14.81,3.86-22.45-2-2.96-4.76-5.32-7.17-7.89-12.85-12.51-24.48-26.2-37.4-38.63-4.63,2.24-9.25,4.72-14.38,5.57ZM840.31,840.25c-11.75,1.2-21.84,13.65-18.18,25.58,3.38,9.16,13.03,17.05,23.28,14.67,14.78-1.15,21.38-20.83,13.04-31.94-4.53-4.95-11.21-8.92-18.14-8.31ZM642.47,914.62c-10.69,1.76-17.77,14.2-14.55,24.42,1.9,9.81,13.2,16.1,22.65,14.54,10.05-1.25,18.61-11.57,16.88-21.74-.7-11.77-13.77-20.37-24.98-17.22Z"/>
</svg>